<svg width="128" height="128" viewBox="0 0 128 128" xmlns="http://www.w3.org/2000/svg">
  <defs>
    <linearGradient id="grad" x1="0%" y1="0%" x2="100%" y2="100%">
      <stop offset="0%" style="stop-color:#1a73e8;stop-opacity:1" />
      <stop offset="100%" style="stop-color:#1557b0;stop-opacity:1" />
    </linearGradient>
    <filter id="shadow" x="-20%" y="-20%" width="140%" height="140%">
      <feDropShadow dx="2" dy="2" stdDeviation="3" flood-color="#000000" flood-opacity="0.3"/>
    </filter>
  </defs>
  
  <rect width="128" height="128" rx="20" fill="url(#grad)" filter="url(#shadow)"/>
  
  <!-- Mapa principal -->
  <path d="M64 16C44.12 16 28 32.12 28 52c0 22.08 36 60 36 60s36-37.92 36-60c0-19.88-16.12-36-36-36zm0 60c-13.25 0-24-10.75-24-24s10.75-24 24-24 24 10.75 24 24-10.75 24-24 24z" fill="white"/>
  
  <!-- Punto central -->
  <circle cx="64" cy="52" r="8" fill="#1a73e8"/>
  
  <!-- Texto -->
  <text x="64" y="110" text-anchor="middle" fill="white" font-family="Arial, sans-serif" font-size="14" font-weight="bold">GMaps Scraper</text>
  
  <!-- Icono de lupa -->
  <circle cx="64" cy="52" r="12" fill="none" stroke="white" stroke-width="2" opacity="0.8"/>
  <line x1="72" y1="60" x2="78" y2="66" stroke="white" stroke-width="2" opacity="0.8"/>
</svg> 